<?xml version="1.0" encoding="utf-8"?>
<!-- Generator: Adobe Illustrator 26.5.0, SVG Export Plug-In . SVG Version: 6.00 Build 0)  -->
<svg version="1.1" id="Layer_4" xmlns="http://www.w3.org/2000/svg" xmlns:xlink="http://www.w3.org/1999/xlink" x="0px" y="0px"
	 viewBox="0 0 100 100" style="enable-background:new 0 0 100 100;" xml:space="preserve">
<style type="text/css">
	.st0{fill:#FEFEFE;}
</style>
<g>
	<path class="st0" d="M50.31,4C24.61,3.88,3.99,24.4,4.01,50.06c0.02,25.42,20.51,45.93,45.91,45.95
		c25.42,0.03,45.98-20.42,46.05-45.82C96.04,24.72,75.67,4.11,50.31,4z M48,8.26c0,6.11-0.09,11.58,0.04,17.04
		c0.06,2.23-0.7,2.99-2.83,2.64c-1.14-0.19-2.31-0.19-3.46-0.34c-9.33-1.22-9.44-1.38-4.52-9.8C39.65,13.67,42.44,9.8,48,8.26z
		 M48,40.57c0,7.44,0,7.44-9.02,7.44c-9.41,0-9.41,0-8.14-9.44c1.11-8.3,1.11-8.3,9.33-7.19C48,32.45,48,32.45,48,40.57z
		 M37.94,9.67c-3.26,4.47-5.74,8.05-6.92,12.21c-0.95,3.33-2.56,3.63-5.34,2.29c-1.92-0.93-3.98-1.54-6.49-2.49
		C24.09,15.86,30.01,12.42,37.94,9.67z M9.58,38.39c0.47-1.59,1-3.17,1.64-4.69c3.86-9.27,7.02-10.16,15.74-4.9
		c1.76,1.06,1.06,2.18,0.91,3.34c-0.52,3.95-1.62,7.88-1.59,11.81c0.03,3.78-1.45,4.5-4.65,4.1c-1.64-0.21-3.32-0.04-4.98-0.04
		C6.74,48.01,6.73,48.01,9.58,38.39z M13.53,71.06c-2.51-4.74-4.18-9.71-5.25-14.94c-0.64-3.11,0.02-4.67,3.58-4.16
		c1.79,0.25,3.65,0.04,5.47,0.04c8.11,0,8.11,0,9.21,7.7c0.14,0.99,0.29,1.98,0.41,2.96c0.96,7.64,0.8,7.33-6.23,10.87
		C16.86,75.47,15.29,74.38,13.53,71.06z M19.28,78.7c0.91-0.55,1.41-0.93,1.96-1.18c7.53-3.5,7.47-3.47,11.16,3.96
		c1.37,2.78,3.13,5.37,4.98,8.5C30.02,87.94,24.43,83.96,19.28,78.7z M48,74.84c-0.01,5.47,0,10.93,0,17.09
		c-8.21-3.23-11.16-9.84-13.89-16.62c-0.48-1.2,0.21-1.93,1.37-2.08c3.45-0.43,6.91-0.74,10.35-1.18C48.26,71.73,48,73.34,48,74.84z
		 M43.94,68.22c-1.93-0.2-4.06,0.08-5.9,0.73c-5.68,2-6.71-1.33-7.01-5.73c-0.03-0.5-0.09-0.99-0.16-1.49
		C29.59,52,29.59,52,39.17,52C48,52,48,52,48,60.63c0,1-0.13,2.01,0.02,2.99C48.49,66.82,47.72,68.6,43.94,68.22z M85.15,26.96
		c3.43,5.21,5.36,10.96,6.57,17.04c0.66,3.29-0.38,4.49-3.71,4.05c-1.79-0.23-3.64-0.04-5.47-0.04c-8.02,0-8.02,0-9.13-7.81
		c-0.04-0.33-0.11-0.65-0.15-0.98c-1.38-9.97-1.34-9.85,7.94-13.56C83.33,24.81,84.11,25.38,85.15,26.96z M80.67,21.34
		c-0.88,0.52-1.38,0.89-1.94,1.14c-7.53,3.49-7.47,3.46-11.15-3.95c-1.37-2.78-3.13-5.38-5.01-8.57
		C69.89,12.19,75.65,15.91,80.67,21.34z M51.98,8.08c8.12,3.1,11.05,9.7,13.84,16.42c0.44,1.07,0.15,1.95-1.12,2.25
		c-0.32,0.07-0.65,0.1-0.97,0.18c-11.4,2.68-11.75,2.42-11.75-9.02V8.08z M55.14,31.89c0.64,0.09,1.32-0.08,1.98-0.11
		c3.54-0.19,8.8-2.72,10.22-0.49c2.64,4.14,2.35,9.84,2.59,15c0.09,1.8-1.03,1.73-2.24,1.72c-2.32-0.01-4.65,0-6.97,0
		c-8.73,0-8.73,0-8.73-8.72c0-1.33,0.12-2.67-0.03-3.98C51.68,32.85,52.4,31.51,55.14,31.89z M69.17,61.2
		c-1.16,8.55-1.16,8.55-9.62,7.37c-7.56-1.04-7.56-1.04-7.56-8.89c0-7.68,0-7.68,9.28-7.68C70.42,52,70.42,52,69.17,61.2z
		 M51.99,91.77c0-6.14,0.09-11.6-0.05-17.06c-0.06-2.22,0.69-2.99,2.83-2.64c1.14,0.18,2.31,0.18,3.46,0.33
		c9.25,1.22,9.41,1.48,4.52,9.8C60.33,86.33,57.52,90.17,51.99,91.77z M62.23,90.36c3.48-5.18,6.11-9.68,7.78-14.63
		c0.44-1.31,1.66-0.8,2.54-0.48c2.62,0.94,5.21,1.96,8.28,3.13C75.67,84.21,69.9,87.55,62.23,90.36z M88.94,65.73
		c-3.95,9.84-6.7,10.72-15.82,5.52c-1.45-0.83-1.36-1.68-1.12-2.79c1.02-4.71,1.77-9.47,1.86-14.29c0.03-1.8,0.74-2.26,2.39-2.19
		c2.32,0.1,4.65,0.02,6.97,0.02c10.06,0,10.06,0,7.02,9.98C89.86,63.24,89.43,64.5,88.94,65.73z"/>
	<path d="M50.31,4C24.61,3.88,3.99,24.4,4.01,50.06c0.02,25.42,20.51,45.93,45.91,45.95c25.42,0.03,45.98-20.42,46.05-45.82
		C96.04,24.72,75.67,4.11,50.31,4z M48,8.26c0,6.11-0.09,11.58,0.04,17.04c0.06,2.23-0.7,2.99-2.83,2.64
		c-1.14-0.19-2.31-0.19-3.46-0.34c-9.33-1.22-9.44-1.38-4.52-9.8C39.65,13.67,42.44,9.8,48,8.26z M48,40.57c0,7.44,0,7.44-9.02,7.44
		c-9.41,0-9.41,0-8.14-9.44c1.11-8.3,1.11-8.3,9.33-7.19C48,32.45,48,32.45,48,40.57z M37.94,9.67c-3.26,4.47-5.74,8.05-6.92,12.21
		c-0.95,3.33-2.56,3.63-5.34,2.29c-1.92-0.93-3.98-1.54-6.49-2.49C24.09,15.86,30.01,12.42,37.94,9.67z M9.58,38.39
		c0.47-1.59,1-3.17,1.64-4.69c3.86-9.27,7.02-10.16,15.74-4.9c1.76,1.06,1.06,2.18,0.91,3.34c-0.52,3.95-1.62,7.88-1.59,11.81
		c0.03,3.78-1.45,4.5-4.65,4.1c-1.64-0.21-3.32-0.04-4.98-0.04C6.74,48.01,6.73,48.01,9.58,38.39z M13.53,71.06
		c-2.51-4.74-4.18-9.71-5.25-14.94c-0.64-3.11,0.02-4.67,3.58-4.16c1.79,0.25,3.65,0.04,5.47,0.04c8.11,0,8.11,0,9.21,7.7
		c0.14,0.99,0.29,1.98,0.41,2.96c0.96,7.64,0.8,7.33-6.23,10.87C16.86,75.47,15.29,74.38,13.53,71.06z M19.28,78.7
		c0.91-0.55,1.41-0.93,1.96-1.18c7.53-3.5,7.47-3.47,11.16,3.96c1.37,2.78,3.13,5.37,4.98,8.5C30.02,87.94,24.43,83.96,19.28,78.7z
		 M48,74.84c-0.01,5.47,0,10.93,0,17.09c-8.21-3.23-11.16-9.84-13.89-16.62c-0.48-1.2,0.21-1.93,1.37-2.08
		c3.45-0.43,6.91-0.74,10.35-1.18C48.26,71.73,48,73.34,48,74.84z M43.94,68.22c-1.93-0.2-4.06,0.08-5.9,0.73
		c-5.68,2-6.71-1.33-7.01-5.73c-0.03-0.5-0.09-0.99-0.16-1.49C29.59,52,29.59,52,39.17,52C48,52,48,52,48,60.63
		c0,1-0.13,2.01,0.02,2.99C48.49,66.82,47.72,68.6,43.94,68.22z M85.15,26.96c3.43,5.21,5.36,10.96,6.57,17.04
		c0.66,3.29-0.38,4.49-3.71,4.05c-1.79-0.23-3.64-0.04-5.47-0.04c-8.02,0-8.02,0-9.13-7.81c-0.04-0.33-0.11-0.65-0.15-0.98
		c-1.38-9.97-1.34-9.85,7.94-13.56C83.33,24.81,84.11,25.38,85.15,26.96z M80.67,21.34c-0.88,0.52-1.38,0.89-1.94,1.14
		c-7.53,3.49-7.47,3.46-11.15-3.95c-1.37-2.78-3.13-5.38-5.01-8.57C69.89,12.19,75.65,15.91,80.67,21.34z M51.98,8.08
		c8.12,3.1,11.05,9.7,13.84,16.42c0.44,1.07,0.15,1.95-1.12,2.25c-0.32,0.07-0.65,0.1-0.97,0.18c-11.4,2.68-11.75,2.42-11.75-9.02
		V8.08z M55.14,31.89c0.64,0.09,1.32-0.08,1.98-0.11c3.54-0.19,8.8-2.72,10.22-0.49c2.64,4.14,2.35,9.84,2.59,15
		c0.09,1.8-1.03,1.73-2.24,1.72c-2.32-0.01-4.65,0-6.97,0c-8.73,0-8.73,0-8.73-8.72c0-1.33,0.12-2.67-0.03-3.98
		C51.68,32.85,52.4,31.51,55.14,31.89z M69.17,61.2c-1.16,8.55-1.16,8.55-9.62,7.37c-7.56-1.04-7.56-1.04-7.56-8.89
		c0-7.68,0-7.68,9.28-7.68C70.42,52,70.42,52,69.17,61.2z M51.99,91.77c0-6.14,0.09-11.6-0.05-17.06c-0.06-2.22,0.69-2.99,2.83-2.64
		c1.14,0.18,2.31,0.18,3.46,0.33c9.25,1.22,9.41,1.48,4.52,9.8C60.33,86.33,57.52,90.17,51.99,91.77z M62.23,90.36
		c3.48-5.18,6.11-9.68,7.78-14.63c0.44-1.31,1.66-0.8,2.54-0.48c2.62,0.94,5.21,1.96,8.28,3.13C75.67,84.21,69.9,87.55,62.23,90.36z
		 M88.94,65.73c-3.95,9.84-6.7,10.72-15.82,5.52c-1.45-0.83-1.36-1.68-1.12-2.79c1.02-4.71,1.77-9.47,1.86-14.29
		c0.03-1.8,0.74-2.26,2.39-2.19c2.32,0.1,4.65,0.02,6.97,0.02c10.06,0,10.06,0,7.02,9.98C89.86,63.24,89.43,64.5,88.94,65.73z"/>
</g>
</svg>
