<?xml version="1.0" encoding="utf-8"?>
<!-- Generator: Adobe Illustrator 26.5.0, SVG Export Plug-In . SVG Version: 6.00 Build 0)  -->
<svg version="1.1" id="Layer_4" xmlns="http://www.w3.org/2000/svg" xmlns:xlink="http://www.w3.org/1999/xlink" x="0px" y="0px"
	 viewBox="0 0 100 100" style="enable-background:new 0 0 100 100;" xml:space="preserve">
<style type="text/css">
	.st0{fill:#FEFEFE;}
	.st1{fill:#020202;}
	.st2{fill:#040404;}
</style>
<g>
	<path class="st0" d="M31.3,62.99c-0.83,3.36,1.58,5.78,4.9,4.83c3.69-1.07,4.47,1.57,6.45,3.14c-5.36,4.04-10.68,3.95-14.53,0.02
		c-3.86-3.93-3.88-9.41,0-14.33C30.2,58.24,32.19,59.42,31.3,62.99z"/>
	<path class="st0" d="M48.87,77.35c1.7,2.48-1.06,3-2.26,3.83c-3.31,2.31-7.1,3.38-11.81,3.46c-7.31-0.41-13.59-3.8-17.48-10.96
		c-3.88-7.17-3.49-14.37,0.74-21.27c0.76-1.24,1.39-3.96,3.79-2.35c1.82,1.22,3.36,2.46,1.37,5.48c-4.24,6.42-3.25,13.61,1.74,18.68
		c4.99,5.06,12.13,6.08,18.47,1.81C46.38,74.04,47.61,75.51,48.87,77.35z"/>
	<path class="st0" d="M84.65,67.46c-5.11-4.94-10.02-10.09-15.06-15.11c-1.57-1.56-2.4-2.86-1.95-5.53
		c1.56-9.28-6.35-17.26-15.46-15.64c-2.56,0.46-3.91-0.21-5.51-1.87c-5.03-5.25-10.24-10.33-15.24-15.62
		c-1.75-1.85-2.82-1.83-4.61,0.02c-4.36,4.49-8.97,8.74-13.12,12.74c5.15,9.31,14.91,13.26,18.96,23.39
		c2.72,6.81,9.71,13.59,16.45,16.57c7.13,3.16,10.61,9.18,16.14,13.35c1.43,1.09,2.66,2.49,3.83,3.88c1.57,1.88,2.78,2.07,4.59,0.07
		c3.55-3.93,7.22-7.77,11.14-11.3C87.1,70.35,86.53,69.27,84.65,67.46z M37.6,41.57c-2.15,1.44-2.87-1.39-4-2.42
		c-3.17-2.87-5.92-6.23-9.16-9.01c-2.65-2.26-2.39-4,0.22-5.63c1.86-1.16,2.87-5.42,5.43-3.38c4.72,3.77,8.7,8.51,12.97,12.87
		c0.32,0.33,0.5,0.81,1.01,1.66C41.98,37.62,40.02,39.95,37.6,41.57z M43.15,52.98c-3.75-3.45-3.76-5.62,0.12-8.59
		c2.2-1.68,3.87-4.04,6-5.83c2.46-2.08,5.31-2.38,8.25-0.89c2.91,1.47,4.29,3.93,4.54,6.85c-0.08,3.74-2.28,5.95-4.52,8.18
		C50.23,59.96,50.48,59.72,43.15,52.98z M76.15,72.75c-1.62,1.34-2.83,3.17-4.27,4.84c-1.26-1.1-2.03-1.7-2.71-2.39
		c-3.5-3.51-6.84-7.17-10.49-10.5c-2.15-1.95-2.08-3.27,0.11-4.95c1.04-0.79,1.96-1.78,2.77-2.81c1.43-1.85,2.6-1.84,4.22-0.1
		c3.36,3.63,6.76,7.25,10.43,10.55C78.53,69.48,78.46,70.82,76.15,72.75z"/>
	<path d="M84.65,67.46c-5.11-4.94-10.02-10.09-15.06-15.11c-1.57-1.56-2.4-2.86-1.95-5.53c1.56-9.28-6.35-17.26-15.46-15.64
		c-2.56,0.46-3.91-0.21-5.51-1.87c-5.03-5.25-10.24-10.33-15.24-15.62c-1.75-1.85-2.82-1.83-4.61,0.02
		c-4.36,4.49-8.97,8.74-13.12,12.74c5.15,9.31,14.91,13.26,18.96,23.39c2.72,6.81,9.71,13.59,16.45,16.57
		c7.13,3.16,10.61,9.18,16.14,13.35c1.43,1.09,2.66,2.49,3.83,3.88c1.57,1.88,2.78,2.07,4.59,0.07c3.55-3.93,7.22-7.77,11.14-11.3
		C87.1,70.35,86.53,69.27,84.65,67.46z M37.6,41.57c-2.15,1.44-2.87-1.39-4-2.42c-3.17-2.87-5.92-6.23-9.16-9.01
		c-2.65-2.26-2.39-4,0.22-5.63c1.86-1.16,2.87-5.42,5.43-3.38c4.72,3.77,8.7,8.51,12.97,12.87c0.32,0.33,0.5,0.81,1.01,1.66
		C41.98,37.62,40.02,39.95,37.6,41.57z M43.15,52.98c-3.75-3.45-3.76-5.62,0.12-8.59c2.2-1.68,3.87-4.04,6-5.83
		c2.46-2.08,5.31-2.38,8.25-0.89c2.91,1.47,4.29,3.93,4.54,6.85c-0.08,3.74-2.28,5.95-4.52,8.18
		C50.23,59.96,50.48,59.72,43.15,52.98z M76.15,72.75c-1.62,1.34-2.83,3.17-4.27,4.84c-1.26-1.1-2.03-1.7-2.71-2.39
		c-3.5-3.51-6.84-7.17-10.49-10.5c-2.15-1.95-2.08-3.27,0.11-4.95c1.04-0.79,1.96-1.78,2.77-2.81c1.43-1.85,2.6-1.84,4.22-0.1
		c3.36,3.63,6.76,7.25,10.43,10.55C78.53,69.48,78.46,70.82,76.15,72.75z"/>
	<path class="st1" d="M46.61,81.18c-3.31,2.31-7.1,3.38-11.81,3.46c-7.31-0.41-13.59-3.8-17.48-10.96
		c-3.88-7.17-3.49-14.37,0.74-21.27c0.76-1.24,1.39-3.96,3.79-2.35c1.82,1.22,3.36,2.46,1.37,5.48c-4.24,6.42-3.25,13.61,1.74,18.68
		c4.99,5.06,12.13,6.08,18.47,1.81c2.95-1.99,4.18-0.52,5.44,1.32C50.57,79.83,47.81,80.35,46.61,81.18z"/>
	<path class="st2" d="M42.65,70.96c-5.36,4.04-10.68,3.95-14.53,0.02c-3.86-3.93-3.88-9.41,0-14.33c2.08,1.59,4.07,2.77,3.18,6.34
		c-0.83,3.36,1.58,5.78,4.9,4.83C39.89,66.75,40.67,69.39,42.65,70.96z"/>
</g>
</svg>
